# xmcd
#
# Track frame offsets:
#	150
#	16162
#	36790
#	57155
#	71712
#	103682
#	125450
#	144407
#	161012
#	175237
#
# Disc length: 2659 seconds
#
# Revision: 0
# Processed by: cddbd v1.5.2PL0 Copyright (c) Steve Scherf et al.
# Submitted via: audiograbber 1.81.02
#
DISCID=840a610a
DTITLE=Barry White - Greatest Hits
DYEAR=1900
DGENRE=Oldies
TTITLE0=What Am I Gonna Do With You
TTITLE1=You're The First, The Last, My Everything
TTITLE2=Can't Get Enough Of Your Love, Babe
TTITLE3=Honey Please, Can't Ya See
TTITLE4=Love Serenade
TTITLE5=Never Never Gonna Give Ya Up
TTITLE6=I'm Gonna Love You Just A Little More, Baby
TTITLE7=I've Found Someone
TTITLE8=I've Got So Much To Give
TTITLE9=Standing In The Shadows Of Love
EXTD=
EXTT0=
EXTT1=
EXTT2=
EXTT3=
EXTT4=
EXTT5=
EXTT6=
EXTT7=
EXTT8=
EXTT9=
PLAYORDER=
